# xmcd CD database file generated by OrangeCD 5.2
#
# Track frame offsets:
#	150
#	21030
#	43420
#	59642
#	79885
#	101907
#	120612
#	139140
#	160722
#	181482
#	209792
#	224407
#
# Disc length: 3160 seconds
#
# Revision: 0
# Processed by: cddbd v1.5.1PL0 Copyright (c) Steve Scherf et al.
# Submitted via: OrangeCD 5.2
#
DISCID=bc0c560c
DTITLE=Jimbo Mathus - Knockdown South
DYEAR=1900
DGENRE=Blues
TTITLE0=Crazy Bout You
TTITLE1=Hypmotized
TTITLE2=Let Me Be Your Rocker
TTITLE3=Boogie Music
TTITLE4=Skateland Baby
TTITLE5=Mule Plow Line
TTITLE6=Loose Diamonds
TTITLE7=Be That Way
TTITLE8=State Line Women 
TTITLE9=Rolling Like a Log
TTITLE10=Loving Arms
TTITLE11=Asked My Captain
EXTD=
EXTT0=
EXTT1=
EXTT2=
EXTT3=
EXTT4=
EXTT5=
EXTT6=
EXTT7=
EXTT8=
EXTT9=
EXTT10=
EXTT11=
PLAYORDER=
